<svg width="267" height="87" viewBox="0 0 267 87" fill="none" xmlns="http://www.w3.org/2000/svg">
<path d="M76.1689 65.7773C73.1514 65.7773 70.7344 64.6641 68.918 62.4375C67.1016 60.2109 66.1934 57.252 66.1934 53.5605C66.1934 47.877 68.0098 41.4463 71.6426 34.2686C73.3711 30.8115 75.0264 27.7646 76.6084 25.1279C78.1904 22.4619 80.0801 19.4736 82.2773 16.1631C80.4609 18.2725 78.1904 20.7773 75.4658 23.6777L68.0391 31.4561C61.8574 38.0186 56.2031 44.8447 51.0762 51.9346C50.3145 53.0479 49.7285 53.8682 49.3184 54.3955H49.1426C48.8203 54.3955 48.6445 54.2783 48.6152 54.0439C51.1055 50.499 53.3027 46.9834 55.207 43.4971C57.1113 39.9814 59.0156 35.792 60.9199 30.9287C64.1426 22.8135 66.1494 16.0752 66.9404 10.7139C65.7393 15.0498 63.2051 20.0889 59.3379 25.8311C55.5879 31.5732 50.7686 36.9785 44.8799 42.0469C41.9209 44.5664 38.8154 46.7637 35.5635 48.6387C32.3115 50.5137 28.7812 52.0225 24.9727 53.165C21.1934 54.3076 17.3848 54.8789 13.5469 54.8789C9.5918 54.8789 6.38379 53.9268 3.92285 52.0225C1.46191 50.0889 0.231445 47.6572 0.231445 44.7275C0.348633 44.5811 0.495117 44.5078 0.670898 44.5078C0.84668 44.5078 0.993164 44.5811 1.11035 44.7275C1.11035 47.3936 2.20898 49.6055 4.40625 51.3633C6.63281 53.1211 9.51855 54 13.0635 54C16.4619 54 19.9922 53.2529 23.6543 51.7588C27.3164 50.2354 30.7881 48.2285 34.0693 45.7383C40.8955 40.4941 46.96 34.4736 52.2627 27.6768C57.4189 20.9385 61.125 15.0498 63.3809 10.0107C64.4062 7.5498 64.9189 5.68945 64.9189 4.42969C64.9189 3.66797 64.3184 3.24316 63.1172 3.15527C60.5391 3.15527 57.624 3.77051 54.3721 5.00098C51.1201 6.23145 47.9268 7.94531 44.792 10.1426C41.6865 12.3398 38.7861 14.8008 36.0908 17.5254C33.4248 20.25 31.2715 23.2529 29.6309 26.5342C28.0195 29.8154 27.2139 32.9941 27.2139 36.0703C27.2139 37.5938 27.4482 39.0439 27.917 40.4209C28.415 41.7979 28.9863 42.4863 29.6309 42.4863V43.2773C27.873 43.2773 26.3936 42.3105 25.1924 40.377C24.0205 38.4141 23.4346 36.2314 23.4346 33.8291C23.4346 30.0791 24.5186 26.2998 26.6865 22.4912C28.8838 18.6826 31.7549 15.2988 35.2998 12.3398C38.874 9.35156 43.1221 6.91992 48.0439 5.04492C52.9658 3.16992 57.9902 2.23242 63.1172 2.23242C65.1973 2.23242 66.5449 2.78906 67.1602 3.90234C67.7168 4.75195 67.9951 6.04102 67.9951 7.76953C67.9951 10.6406 67.2188 14.7422 65.666 20.0742C63.1758 28.6289 59.7627 36.876 55.4268 44.8154C58.3857 41.0654 61.5059 37.374 64.7871 33.7412C68.0977 30.0791 70.9102 27.0908 73.2246 24.7764C75.5684 22.4326 78.1172 19.6934 80.8711 16.5586C83.6543 13.3945 86.1152 10.2598 88.2539 7.1543C90.3926 3.75586 91.4619 1.51465 91.4619 0.430664C92.5166 0.430664 93.3662 0.738281 94.0107 1.35352C94.6553 1.93945 94.9775 2.71582 94.9775 3.68262C94.9775 4.64941 94.3623 6.23145 93.1318 8.42871C91.9014 10.5967 90.3633 13.0137 88.5176 15.6797C86.7012 18.3457 84.709 21.4658 82.541 25.04C80.4023 28.585 78.4102 32.1152 76.5645 35.6309C74.748 39.1172 73.2246 42.8818 71.9941 46.9248C70.7637 50.9678 70.1484 54.7324 70.1484 58.2188C70.1484 60.2109 70.7051 61.8223 71.8184 63.0527C72.9316 64.2832 74.3818 64.8984 76.1689 64.8984C77.9854 64.8984 79.6406 64.5615 81.1348 63.8877C81.3691 63.917 81.4863 64.0635 81.4863 64.3271C81.4863 64.5029 81.4277 64.6641 81.3105 64.8105C79.6992 65.4551 77.9854 65.7773 76.1689 65.7773ZM89.1768 54.8789C87.126 54.8789 85.4707 54.3076 84.2109 53.165C82.9512 52.0225 82.3213 50.499 82.3213 48.5947C82.3213 45.8701 83.083 43.1162 84.6064 40.333C86.1299 37.5498 87.9756 35.1768 90.1436 33.2139C92.3408 31.251 94.6553 29.6543 97.0869 28.4238C99.5479 27.1641 101.701 26.5342 103.547 26.5342C106.008 26.5342 107.268 27.4717 107.326 29.3467C107.326 31.4854 105.686 33.6973 102.404 35.9824C99.1523 38.2383 95.3438 39.542 90.9785 39.8936C88.1367 44.2588 86.7158 47.7891 86.7158 50.4844C86.7158 51.5098 86.9795 52.3594 87.5068 53.0332C88.0635 53.6777 88.7666 54 89.6162 54C95.0361 54 101.394 48.7266 108.688 38.1797L108.908 38.1357C109.055 38.1357 109.172 38.1943 109.26 38.3115C109.377 38.3994 109.436 38.5166 109.436 38.6631V38.707C104.982 45.0645 101.071 49.415 97.7021 51.7588C94.6553 53.8389 91.8135 54.8789 89.1768 54.8789ZM91.6377 38.8828C95.915 38.2676 99.4453 36.9785 102.229 35.0156C105.041 33.0527 106.447 31.1631 106.447 29.3467C106.447 28.0869 105.847 27.457 104.646 27.457C103.093 27.457 101.071 28.585 98.5811 30.8408C96.1201 33.0967 93.8057 35.7773 91.6377 38.8828ZM104.294 54.5273C103.386 54.5273 102.639 54.2197 102.053 53.6045C101.438 52.9893 101.13 52.1982 101.13 51.2314C101.13 50.2061 101.848 48.4922 103.283 46.0898C104.719 43.6582 106.301 41.2852 108.029 38.9707C109.787 36.627 111.384 34.2832 112.819 31.9395C114.255 29.5664 114.973 27.9258 114.973 27.0176C115.881 27.0176 116.613 27.3105 117.17 27.8965C117.756 28.4824 118.049 29.2588 118.049 30.2256C118.049 31.9834 115.998 35.7627 111.896 41.5635C113.566 39.8936 115.954 37.7549 119.06 35.1475C122.165 32.5107 124.113 30.6797 124.904 29.6543C125.725 28.6289 126.135 27.75 126.135 27.0176C127.688 27.0176 128.537 27.9111 128.684 29.6982C128.684 31.0459 127.907 32.4961 126.354 34.0488C124.831 35.6016 124.069 37.125 124.069 38.6191C124.069 39.5273 124.348 39.9814 124.904 39.9814V40.8604C123.879 40.8604 123.044 40.4648 122.399 39.6738C121.784 38.8535 121.477 37.7842 121.477 36.4658C121.477 35.5283 121.682 34.6201 122.092 33.7412L115.632 39.3223L112.512 42.3105C109.846 44.9473 107.692 47.5547 106.052 50.1328C104.88 52.125 104.294 53.5898 104.294 54.5273ZM126.267 54.5273C125.358 54.5273 124.611 54.2197 124.025 53.6045C123.41 52.9893 123.103 52.1982 123.103 51.2314C123.103 50.2061 123.82 48.4922 125.256 46.0898C126.691 43.6582 128.273 41.2852 130.002 38.9707C131.76 36.627 133.356 34.2832 134.792 31.9395C136.228 29.5664 136.945 27.9258 136.945 27.0176C137.854 27.0176 138.586 27.3105 139.143 27.8965C139.729 28.4824 140.021 29.2588 140.021 30.2256C140.021 31.9834 137.971 35.7627 133.869 41.5635C135.539 39.8936 137.927 37.7549 141.032 35.1475C144.138 32.5107 146.086 30.6797 146.877 29.6543C147.697 28.6289 148.107 27.75 148.107 27.0176C149.66 27.0176 150.51 27.9111 150.656 29.6982C150.656 31.0459 149.88 32.4961 148.327 34.0488C146.804 35.6016 146.042 37.125 146.042 38.6191C146.042 39.5273 146.32 39.9814 146.877 39.9814V40.8604C145.852 40.8604 145.017 40.4648 144.372 39.6738C143.757 38.8535 143.449 37.7842 143.449 36.4658C143.449 35.5283 143.654 34.6201 144.064 33.7412L137.604 39.3223L134.484 42.3105C131.818 44.9473 129.665 47.5547 128.024 50.1328C126.853 52.125 126.267 53.5898 126.267 54.5273ZM117.829 86.3877C113.493 86.3877 110.007 85.4209 107.37 83.4873C104.733 81.583 103.415 79.0781 103.415 75.9727C103.562 75.8262 103.723 75.7529 103.898 75.7529C104.045 75.7529 104.191 75.8262 104.338 75.9727C104.338 78.7266 105.524 80.9678 107.897 82.6963C110.241 84.4541 113.347 85.333 117.214 85.333C121.228 85.333 125.095 84.3662 128.815 82.4326C132.448 80.6455 135.979 78.126 139.406 74.874C141.223 73.1455 142.849 71.5049 144.284 69.9521C147.536 66.5537 152.458 60.2549 159.05 51.0557C160.28 49.3857 161.438 47.7744 162.521 46.2217C157.658 51.9932 153.615 54.8789 150.393 54.8789C149.045 54.8789 147.961 54.5127 147.141 53.7803C146.291 53.0479 145.866 52.0371 145.866 50.748C145.866 49.459 146.54 47.6426 147.888 45.2988C149.235 42.9551 150.715 40.6992 152.326 38.5312C153.967 36.3633 155.461 34.21 156.809 32.0713C158.156 29.9033 158.83 28.3652 158.83 27.457C159.885 27.457 160.734 27.7646 161.379 28.3799C162.023 28.9658 162.346 29.7422 162.346 30.709C162.346 31.7051 161.687 33.2725 160.368 35.4111C159.05 37.5205 157.6 39.5859 156.018 41.6074C154.465 43.5996 153.029 45.6357 151.711 47.7158C150.393 49.7959 149.733 51.3486 149.733 52.374C149.733 53.458 150.188 54 151.096 54C152.473 54 154.274 53.0625 156.501 51.1875C158.728 49.2832 160.734 47.291 162.521 45.2109C164.309 43.1016 165.876 41.0947 167.224 39.1904C171.208 33.0088 173.2 28.9512 173.2 27.0176C174.284 27.0176 175.148 27.3252 175.793 27.9404C176.467 28.5264 176.804 29.3027 176.804 30.2695C176.804 33.4629 171.823 41.7393 161.862 55.0986C159.987 57.5889 158.303 59.7715 156.809 61.6465C155.314 63.5508 153.542 65.6455 151.491 67.9307C149.44 70.2451 147.521 72.2227 145.734 73.8633C143.918 75.5332 141.867 77.2031 139.582 78.873C135.275 82.0664 130.646 84.249 125.695 85.4209C123.146 86.0654 120.524 86.3877 117.829 86.3877ZM224.88 54.8789C223.415 54.8789 222.229 54.3955 221.32 53.4287C220.441 52.4619 220.002 51.1875 220.002 49.6055C220.002 48.2871 220.646 46.5146 221.936 44.2881C223.225 42.0615 224.631 39.9814 226.154 38.0479C227.707 36.085 229.113 34.1953 230.373 32.3789C231.633 30.5625 232.263 29.376 232.263 28.8193C232.263 28.2041 231.984 27.8965 231.428 27.8965C230.021 27.8965 228.19 28.7021 225.935 30.3135C223.679 31.9248 221.452 33.8877 219.255 36.2021C217.058 38.5166 215.065 40.7578 213.278 42.9258C211.491 45.0938 210.1 46.9102 209.104 48.375C207.492 50.8066 206.687 52.7109 206.687 54.0879C205.778 54.0879 205.017 53.7803 204.401 53.165C203.815 52.5205 203.522 51.7148 203.522 50.748C203.522 49.3711 204.211 47.5254 205.588 45.2109C206.965 42.8965 208.474 40.7285 210.114 38.707C211.784 36.6855 213.308 34.708 214.685 32.7744C216.062 30.8408 216.75 29.5225 216.75 28.8193C216.75 28.2041 216.486 27.8965 215.959 27.8965C214.523 27.8965 212.722 28.6582 210.554 30.1816C208.415 31.7051 206.262 33.6094 204.094 35.8945C199.67 40.6406 196.154 44.8594 193.547 48.5508C191.818 51.1289 190.954 52.9746 190.954 54.0879C190.046 54.0879 189.299 53.7803 188.713 53.165C188.098 52.5205 187.79 51.7148 187.79 50.748C187.79 49.8105 188.508 48.1992 189.943 45.9141C191.35 43.6289 192.888 41.3584 194.558 39.1025C196.257 36.8467 197.81 34.5762 199.216 32.291C200.651 29.9766 201.369 28.3652 201.369 27.457C202.277 27.457 203.01 27.7646 203.566 28.3799C204.152 28.9658 204.445 29.7422 204.445 30.709C204.445 32.0566 203.405 34.3271 201.325 37.5205C207.741 30.5186 212.678 27.0176 216.135 27.0176C217.307 27.0176 218.259 27.3398 218.991 27.9844C219.724 28.6289 220.09 29.4639 220.09 30.4893C220.09 31.9248 219.211 34.0195 217.453 36.7734C223.547 30.2695 228.264 27.0176 231.604 27.0176C232.775 27.0176 233.728 27.3398 234.46 27.9844C235.222 28.6289 235.603 29.4639 235.603 30.4893C235.603 31.5732 234.943 33.2285 233.625 35.4551C232.336 37.6523 230.9 39.791 229.318 41.8711C227.766 43.9219 226.33 45.958 225.012 47.9795C223.723 49.9717 223.078 51.3486 223.078 52.1104C223.078 53.2822 223.679 53.9121 224.88 54C229.509 54 235.471 48.7266 242.766 38.1797L242.985 38.1357C243.308 38.1357 243.483 38.2969 243.513 38.6191V38.707C236.071 49.4883 229.86 54.8789 224.88 54.8789ZM246.062 54.8789C244.011 54.8789 242.355 54.3076 241.096 53.165C239.836 52.0225 239.206 50.499 239.206 48.5947C239.206 45.8701 239.968 43.1162 241.491 40.333C243.015 37.5498 244.86 35.1768 247.028 33.2139C249.226 31.251 251.54 29.6543 253.972 28.4238C256.433 27.1641 258.586 26.5342 260.432 26.5342C262.893 26.5342 264.152 27.4717 264.211 29.3467C264.211 31.4854 262.57 33.6973 259.289 35.9824C256.037 38.2383 252.229 39.542 247.863 39.8936C245.021 44.2588 243.601 47.7891 243.601 50.4844C243.601 51.5098 243.864 52.3594 244.392 53.0332C244.948 53.6777 245.651 54 246.501 54C251.921 54 258.278 48.7266 265.573 38.1797L265.793 38.1357C265.939 38.1357 266.057 38.1943 266.145 38.3115C266.262 38.3994 266.32 38.5166 266.32 38.6631V38.707C261.867 45.0645 257.956 49.415 254.587 51.7588C251.54 53.8389 248.698 54.8789 246.062 54.8789ZM248.522 38.8828C252.8 38.2676 256.33 36.9785 259.113 35.0156C261.926 33.0527 263.332 31.1631 263.332 29.3467C263.332 28.0869 262.731 27.457 261.53 27.457C259.978 27.457 257.956 28.585 255.466 30.8408C253.005 33.0967 250.69 35.7773 248.522 38.8828Z" fill="#0B3AD9"/>
</svg>
